<svg width="36" height="36" viewBox="0 0 36 36" fill="none" xmlns="http://www.w3.org/2000/svg">
<path d="M19.4639 19.8026C11.6664 19.4588 9.15447 22.9655 6.88232 27.263L6.8805 27.2654C6.77876 27.4357 6.609 27.538 6.3712 27.5724C6.30163 27.5778 6.23181 27.566 6.16773 27.538C6.02303 27.4912 5.90096 27.3911 5.82569 27.2573C5.75043 27.1236 5.72747 26.9661 5.76138 26.816C5.82921 26.541 5.86312 26.1628 5.93094 25.6815L5.93864 25.6211C6.41965 21.8435 7.52093 13.195 19.4282 11.9297C19.4621 11.8953 19.496 11.8953 19.496 11.861V8.45986C19.496 8.18483 19.6656 7.94417 19.903 7.80665C20.1404 7.70351 20.4795 7.66913 20.7169 7.84103C20.7169 7.84103 29.6997 15.0366 29.7734 15.0926C29.8471 15.1487 29.9069 15.2213 29.9481 15.3049C29.9894 15.3884 30.0108 15.4805 30.0108 15.5739C30.0108 15.6673 29.9894 15.7595 29.9481 15.843C29.9069 15.9266 29.8471 15.9992 29.7734 16.0553L20.7187 23.825C20.6336 23.927 20.5186 23.9987 20.3905 24.0296C20.2623 24.0605 20.1278 24.0491 20.0065 23.9969C19.7013 23.8594 19.4979 23.5156 19.4979 23.2406V19.837L19.4639 19.8026Z" stroke="black" stroke-width="1.47059" stroke-linecap="round" stroke-linejoin="round"/>
</svg>
