<svg width="31" height="26" viewBox="0 0 31 26" fill="none" xmlns="http://www.w3.org/2000/svg">
<path d="M30.2907 3.71311C29.2091 4.19238 28.0472 4.51621 26.8257 4.66259C28.0718 3.91648 29.0277 2.73254 29.4785 1.32322C28.3127 2.01493 27.0213 2.51752 25.6469 2.78695C24.5459 1.61597 22.9785 0.882813 21.2428 0.882813C17.9112 0.882813 15.2091 3.58487 15.2091 6.91905C15.2091 7.39055 15.2635 7.8491 15.3646 8.2921C10.3478 8.03951 5.90349 5.63667 2.92682 1.98643C2.40869 2.88021 2.11077 3.91648 2.11077 5.0201C2.11077 7.11335 3.17682 8.96179 4.79469 10.0434C3.80506 10.011 2.87501 9.74028 2.06154 9.28821V9.36593C2.06154 12.2895 4.14055 14.7286 6.90219 15.283C6.39442 15.4203 5.86204 15.4928 5.31282 15.4928C4.92422 15.4928 4.54469 15.4566 4.17682 15.3866C4.94495 17.783 7.17292 19.5291 9.81409 19.5757C7.74804 21.1949 5.14572 22.1599 2.31931 22.1599C1.83227 22.1599 1.3517 22.1314 0.878906 22.0757C3.54988 23.7894 6.72084 24.7868 10.1276 24.7868C21.2285 24.7868 27.2972 15.5926 27.2972 7.61853C27.2972 7.35946 27.2907 7.09781 27.279 6.83874C28.4578 5.98641 29.4811 4.92554 30.2881 3.717L30.2907 3.71311Z" stroke="black" stroke-width="1.10294" stroke-linejoin="round"/>
</svg>
